<svg width="24" height="24" viewBox="0 0 24 24" fill="none" xmlns="http://www.w3.org/2000/svg">
<path d="M5 7.13193V6.61204C5 4.46614 5 3.3932 5.6896 2.79511C6.37919 2.19703 7.44136 2.34877 9.56569 2.65224L13.8485 3.26408C16.3047 3.61495 17.5327 3.79039 18.2664 4.63628C19 5.48217 19 6.72271 19 9.20377V14.7962C19 17.2773 19 18.5178 18.2664 19.3637C17.5327 20.2096 16.3047 20.385 13.8485 20.7359L9.56568 21.3478C7.44136 21.6512 6.37919 21.803 5.6896 21.2049C5 20.6068 5 19.5339 5 17.388V17.066" stroke="#33363F" stroke-width="2"/>
<path d="M16 12L16.7809 11.3753L17.2806 12L16.7809 12.6247L16 12ZM4 13C3.44771 13 3 12.5523 3 12C3 11.4477 3.44771 11 4 11V12V13ZM12 7L12.7809 6.3753L16.7809 11.3753L16 12L15.2191 12.6247L11.2191 7.6247L12 7ZM16 12L16.7809 12.6247L12.7809 17.6247L12 17L11.2191 16.3753L15.2191 11.3753L16 12ZM16 12V13H4V12V11H16V12Z" fill="#33363F"/>
</svg>
