<svg width="14" height="17" viewBox="0 0 14 17" fill="none" xmlns="http://www.w3.org/2000/svg">
<path d="M8.5 12V17H5.5V12H8.5ZM7 0.951172C8.1097 0.951172 9.04121 1.74975 10.9043 3.34668L11.9043 4.2041C12.9351 5.08765 13.4511 5.52931 13.7256 6.12598C14 6.72272 14 7.40201 14 8.75977V13C14 14.8856 13.9998 15.8283 13.4141 16.4141C12.8825 16.9456 12.0571 16.9915 10.5 16.9961V12C10.5 10.8954 9.60457 10 8.5 10H5.5C4.39543 10 3.5 10.8954 3.5 12V16.9961C1.94288 16.9915 1.11748 16.9456 0.585938 16.4141C0.000157457 15.8283 0 14.8856 0 13V8.75977C0 7.40201 -4.72367e-05 6.72272 0.274414 6.12598C0.548892 5.52931 1.0649 5.08765 2.0957 4.2041L3.0957 3.34668C4.95879 1.74975 5.8903 0.951172 7 0.951172Z" fill="white"/>
</svg>
