<svg width="24" height="24" viewBox="0 0 24 24" fill="none" xmlns="http://www.w3.org/2000/svg">
<path fill-rule="evenodd" clip-rule="evenodd" d="M0.888611 4.79464C0.888611 4.32126 1.27236 3.9375 1.74576 3.9375H22.3172C22.7906 3.9375 23.1744 4.32126 23.1744 4.79464C23.1744 5.26803 22.7906 5.65178 22.3172 5.65178H1.74576C1.27236 5.65178 0.888611 5.26803 0.888611 4.79464Z" fill="white"/>
<path fill-rule="evenodd" clip-rule="evenodd" d="M0.888611 12.2234C0.888611 11.75 1.27236 11.3662 1.74576 11.3662H17.7458C18.2192 11.3662 18.6029 11.75 18.6029 12.2234C18.6029 12.6967 18.2192 13.0805 17.7458 13.0805H1.74576C1.27236 13.0805 0.888611 12.6967 0.888611 12.2234Z" fill="white"/>
<path fill-rule="evenodd" clip-rule="evenodd" d="M0.888611 19.6516C0.888611 19.1782 1.27236 18.7944 1.74576 18.7944H22.3172C22.7906 18.7944 23.1744 19.1782 23.1744 19.6516C23.1744 20.1249 22.7906 20.5087 22.3172 20.5087H1.74576C1.27236 20.5087 0.888611 20.1249 0.888611 19.6516Z" fill="white"/>
</svg>
