<svg width="28" height="28" viewBox="0 0 28 28" fill="none" xmlns="http://www.w3.org/2000/svg">
<circle cx="14" cy="14" r="14" fill="#FEE2E2"/>
<path d="M15.5 17V22H12.5V17H15.5ZM14 5.95117C15.1097 5.95117 16.0412 6.74975 17.9043 8.34668L18.9043 9.2041C19.9351 10.0876 20.4511 10.5293 20.7256 11.126C21 11.7227 21 12.402 21 13.7598V18C21 19.8856 20.9998 20.8283 20.4141 21.4141C19.8825 21.9456 19.0571 21.9915 17.5 21.9961V17C17.5 15.8954 16.6046 15 15.5 15H12.5C11.3954 15 10.5 15.8954 10.5 17V21.9961C8.94288 21.9915 8.11748 21.9456 7.58594 21.4141C7.00016 20.8283 7 19.8856 7 18V13.7598C7 12.402 6.99995 11.7227 7.27441 11.126C7.54889 10.5293 8.0649 10.0876 9.0957 9.2041L10.0957 8.34668C11.9588 6.74975 12.8903 5.95117 14 5.95117Z" fill="#CD2626"/>
</svg>
