<svg width="193" height="193" viewBox="0 0 193 193" fill="none" xmlns="http://www.w3.org/2000/svg">
<path d="M96.5 24.125C136.472 24.125 168.875 56.5284 168.875 96.5C168.875 136.472 136.472 168.875 96.5 168.875C56.5284 168.875 24.125 136.472 24.125 96.5C24.125 56.5284 56.5284 24.125 96.5 24.125ZM133.469 66.6133C130.287 63.9616 125.557 64.3915 122.905 67.5732L87.9551 109.515L69.6367 91.1963C66.7079 88.2678 61.9591 88.2678 59.0303 91.1963C56.1013 94.1252 56.1013 98.8748 59.0303 101.804L81.6064 124.38C81.8119 124.585 82.5077 125.305 83.2559 125.871C84.119 126.524 85.8529 127.61 88.2812 127.643L88.7764 127.635L89.2705 127.598C91.6859 127.345 93.3138 126.106 94.1143 125.378C94.808 124.747 95.436 123.967 95.6221 123.744L134.429 77.1768C137.08 73.9948 136.65 69.265 133.469 66.6133Z" fill="#CD2626"/>
</svg>
